<?xml version="1.0" encoding="UTF-8"?>
<svg xmlns="http://www.w3.org/2000/svg" viewBox="280 220 440 380">
  <polygon points="646.97 253.39 500 509.24 353.03 253.39 305.04 558.51 337.99 558.51 368.79 334.32 500 569.26 631.21 334.32 662.01 558.51 694.96 558.51 646.97 253.39" fill="#fff"/>
  <polyline points="631.21 334.32 662.01 558.51 694.96 558.51" fill="none" stroke="#fff" stroke-miterlimit="10"/>
  <path d="M510.61,583.5c-20.46,0-43.4-6.31-60.15-10.91-10.12-2.78-18.85-5.18-23.28-5.18-10.59,0-16.61,10.9-16.67,11.01l-5.73-1.44v-71.78l5.97-.85c.05.18,5.31,17.7,20.23,34.94,19.9,22.99,46.69,34.64,79.63,34.64,47.4,0,71.44-16.69,71.44-49.59,0-22.81-35.92-34.64-73.95-47.17-46.08-15.18-98.32-32.39-98.32-74.63,0-34.3,39.63-61.17,90.22-61.17,26.04,0,43.08,6.24,55.52,10.79,6.51,2.38,11.65,4.27,15.65,4.27,9.6,0,10.14-9.32,10.16-9.71l.14-2.9h7.67v63.25h-7l-.67-2.14c-.71-2.24-18.07-55.03-81.47-55.03-41.64,0-57.16,23.48-57.16,38.28,0,25.21,37.78,38.2,77.79,51.94,47.95,16.48,97.54,33.51,97.54,74.85,0,33.01-33.66,68.53-107.56,68.53Z" fill="#000"/>
  <path d="M584.37,346.85h1.72v57.16h-1.72s-17.86-57.16-84.37-57.16c-41.93,0-60.2,23.6-60.2,41.33,0,58.24,175.33,52.86,175.33,126.79,0,31.2-32.47,65.49-104.51,65.49-32.53,0-70.81-16.1-83.43-16.1s-19.36,12.62-19.36,12.62v-71.78s20.91,71.78,102.78,71.78c61,0,74.48-27.84,74.48-52.64,0-54.28-172.27-47.53-172.27-121.8,0-33.46,39.96-58.12,87.17-58.12,39.85,0,58.56,15.06,71.17,15.06s13.2-12.62,13.2-12.62Z" fill="#fff"/>
</svg>
